<svg width="3425" height="758" viewBox="0 0 3425 758" fill="none" xmlns="http://www.w3.org/2000/svg">
<g clip-path="url(#clip0_29_7894)">
<path fill-rule="evenodd" clip-rule="evenodd" d="M-23.1602 435.936C-11.6683 392.882 91.5012 503.42 220.125 538.12C348.749 572.82 425.544 548.824 538.898 578.176C652.251 607.528 769.251 671.246 1021.52 706.098C1273.79 740.95 1507.04 655.66 1725.53 665.214C1726.11 665.24 1794.11 663.756 1874.89 678.411C2067.28 713.297 2218.75 745.259 2343.46 734.855C2535.88 718.801 2626.89 647.535 2785.95 607.528C2840.88 593.713 2914.33 578.7 2992.68 567.578C3069.44 556.678 3151.18 549.722 3203.13 530.898C3248.07 514.616 3311.52 472.698 3370.8 446.9C3375.95 444.655 3398.98 432.108 3409.44 429.415C3434.53 422.962 3465.23 421.772 3473.77 424.095C3486.93 427.685 3486.93 713.86 3473.77 1282.62L-23.1602 1283V435.936Z" fill="white"/>
</g>
<defs>
<clipPath id="clip0_29_7894">
<rect width="3425" height="758" fill="white"/>
</clipPath>
</defs>
</svg>
