<svg width="420" height="421" viewBox="0 0 420 421" fill="none" xmlns="http://www.w3.org/2000/svg">
<rect y="0.0234375" width="420" height="420" fill="#D9D9D9"/>
<rect width="420" height="420" transform="matrix(-1 0 0 -1 420 420.023)" fill="url(#paint0_linear_3206_11930)"/>
<rect y="382" width="420" height="38" fill="#DCD9E0"/>
<path fill-rule="evenodd" clip-rule="evenodd" d="M157.048 334.509H94.8503C89.7077 334.509 85.5001 340.015 85.5001 346.744V384.512H176.154V359.51C176.154 345.759 167.556 334.509 157.048 334.509Z" fill="#E81A68"/>
<mask id="mask0_3206_11930" style="mask-type:alpha" maskUnits="userSpaceOnUse" x="64" y="358" width="104" height="25">
<path d="M64 358.421H167.098V382.23H64L64 358.421Z" fill="white"/>
</mask>
<g mask="url(#mask0_3206_11930)">
<path d="M95.1603 373.596C95.0394 373.408 94.8582 373.269 94.6168 373.18C94.3751 373.09 94.1385 373.045 93.9069 373.045C93.6353 373.045 93.3786 373.09 93.1371 373.18C92.8955 373.269 92.6891 373.389 92.518 373.538C92.3468 373.687 92.2108 373.858 92.1103 374.05C92.0095 374.242 91.9594 374.44 91.9594 374.645V374.696C92.2108 374.611 92.4802 374.519 92.767 374.421C93.054 374.323 93.3408 374.223 93.6277 374.12C93.9145 374.018 94.1887 373.922 94.4507 373.832C94.7122 373.743 94.9489 373.664 95.1603 373.596ZM96.4285 376.795C96.1164 377.034 95.739 377.221 95.2961 377.358C94.853 377.494 94.4002 377.562 93.9372 377.562C93.464 377.562 93.0186 377.488 92.6009 377.339C92.1831 377.189 91.8207 376.985 91.5139 376.724C91.2068 376.464 90.9629 376.161 90.7817 375.816C90.6005 375.47 90.5098 375.102 90.5098 374.709C90.5098 374.317 90.6005 373.948 90.7817 373.602C90.9629 373.257 91.2068 372.954 91.5139 372.694C91.8207 372.433 92.1783 372.229 92.5858 372.079C92.9935 371.93 93.4239 371.856 93.8769 371.856C94.6016 371.856 95.238 372.041 95.7868 372.412C96.3352 372.783 96.7252 373.272 96.9569 373.877C96.655 373.971 96.3052 374.084 95.9076 374.216C95.5099 374.349 95.0946 374.487 94.6619 374.632C94.2291 374.777 93.7962 374.925 93.3634 375.074C92.9307 375.223 92.5332 375.357 92.1708 375.477C92.3418 375.741 92.5783 375.955 92.8803 376.117C93.1822 376.279 93.5244 376.36 93.9069 376.36C94.1686 376.36 94.433 376.319 94.6997 376.238C94.9664 376.157 95.1852 376.048 95.3566 375.912L96.4285 376.795Z" fill="white"/>
<path d="M98.0723 371.991H99.3407C99.3606 372.299 99.3832 372.548 99.4085 372.74C99.4336 372.932 99.4562 373.148 99.4765 373.386C99.708 372.926 100.035 372.554 100.458 372.273C100.881 371.991 101.409 371.851 102.043 371.851C102.698 371.851 103.218 372.002 103.606 372.305C103.993 372.608 104.197 373.002 104.217 373.489V377.43H102.783V374.064C102.763 373.8 102.652 373.572 102.451 373.38C102.249 373.188 101.938 373.084 101.515 373.066C101.223 373.066 100.954 373.111 100.707 373.201C100.46 373.29 100.249 373.412 100.073 373.565C99.8968 373.719 99.7607 373.902 99.6653 374.116C99.5694 374.329 99.5219 374.559 99.5219 374.807V377.43H98.0723V371.991Z" fill="white"/>
<path d="M116.685 373.437C116.403 373.437 116.134 373.467 115.878 373.527C115.621 373.587 115.394 373.679 115.198 373.802C115.002 373.926 114.843 374.079 114.723 374.263C114.602 374.446 114.541 374.662 114.541 374.909L114.541 377.43H113.092V371.991H114.36C114.38 372.299 114.403 372.548 114.428 372.74C114.453 372.932 114.476 373.148 114.496 373.386C114.627 373.148 114.803 372.934 115.024 372.746C115.246 372.559 115.475 372.399 115.711 372.267C115.948 372.134 116.182 372.032 116.414 371.959C116.645 371.887 116.841 371.851 117.002 371.851L116.685 373.437Z" fill="white"/>
<path d="M118.932 374.679C118.932 374.918 118.98 375.139 119.075 375.344C119.171 375.549 119.307 375.726 119.483 375.875C119.659 376.024 119.868 376.142 120.11 376.227C120.351 376.312 120.618 376.355 120.91 376.355C121.202 376.355 121.471 376.312 121.718 376.227C121.964 376.142 122.175 376.022 122.352 375.869C122.528 375.715 122.664 375.536 122.759 375.331C122.855 375.126 122.903 374.909 122.903 374.679C122.903 374.448 122.855 374.233 122.759 374.032C122.664 373.832 122.528 373.659 122.352 373.514C122.175 373.369 121.964 373.254 121.718 373.169C121.471 373.084 121.202 373.041 120.91 373.041C120.618 373.041 120.351 373.081 120.11 373.162C119.868 373.243 119.659 373.359 119.483 373.508C119.307 373.657 119.171 373.832 119.075 374.032C118.98 374.233 118.932 374.448 118.932 374.679ZM117.482 374.73C117.482 374.32 117.568 373.939 117.739 373.585C117.91 373.231 118.144 372.924 118.441 372.663C118.738 372.403 119.085 372.201 119.483 372.056C119.881 371.911 120.306 371.838 120.759 371.838C121.101 371.838 121.403 371.876 121.665 371.953C121.926 372.03 122.145 372.115 122.322 372.209C122.498 372.303 122.633 372.393 122.729 372.478C122.825 372.563 122.883 372.614 122.903 372.631C122.903 372.538 122.913 372.435 122.933 372.324C122.953 372.213 122.963 372.098 122.963 371.979H124.352V377.135C124.352 377.596 124.267 378.008 124.096 378.37C123.924 378.733 123.685 379.036 123.378 379.279C123.071 379.522 122.704 379.707 122.276 379.835C121.848 379.963 121.378 380.027 120.864 380.027C120.472 380.027 120.127 379.993 119.83 379.925C119.533 379.857 119.267 379.767 119.03 379.656C118.793 379.545 118.577 379.421 118.381 379.285C118.185 379.149 117.996 379.012 117.815 378.876L118.751 378.044C119.032 378.266 119.334 378.455 119.657 378.613C119.979 378.771 120.371 378.85 120.834 378.85C121.458 378.85 121.957 378.722 122.329 378.466C122.701 378.21 122.888 377.848 122.888 377.378V377.231C122.888 377.176 122.893 377.118 122.903 377.059C122.903 376.982 122.913 376.914 122.933 376.854C122.953 376.794 122.963 376.743 122.963 376.7C122.873 376.786 122.764 376.879 122.639 376.982C122.513 377.084 122.362 377.178 122.186 377.263C122.009 377.349 121.806 377.419 121.574 377.475C121.343 377.53 121.076 377.558 120.774 377.558C120.291 377.558 119.848 377.485 119.445 377.34C119.043 377.195 118.695 376.995 118.403 376.739C118.111 376.483 117.885 376.184 117.724 375.843C117.563 375.502 117.482 375.131 117.482 374.73Z" fill="white"/>
<path d="M107.879 371.19C108.111 370.909 108.34 370.623 108.566 370.333C108.793 370.043 109.022 369.753 109.253 369.463H110.809C110.507 369.753 110.199 370.043 109.887 370.333C109.575 370.623 109.263 370.909 108.951 371.19H107.879ZM110.189 373.596C110.069 373.408 109.887 373.269 109.646 373.18C109.404 373.09 109.168 373.045 108.936 373.045C108.665 373.045 108.408 373.09 108.166 373.18C107.925 373.269 107.718 373.389 107.547 373.538C107.376 373.687 107.24 373.858 107.14 374.05C107.039 374.242 106.989 374.44 106.989 374.645V374.696C107.24 374.611 107.509 374.519 107.796 374.421C108.083 374.323 108.37 374.223 108.657 374.12C108.944 374.018 109.218 373.922 109.48 373.832C109.741 373.743 109.978 373.664 110.189 373.596ZM111.458 376.795C111.146 377.034 110.768 377.221 110.325 377.358C109.882 377.494 109.429 377.562 108.966 377.562C108.493 377.562 108.048 377.488 107.63 377.339C107.212 377.189 106.85 376.985 106.543 376.724C106.236 376.464 105.992 376.161 105.811 375.816C105.63 375.47 105.539 375.102 105.539 374.709C105.539 374.317 105.63 373.948 105.811 373.602C105.992 373.257 106.236 372.954 106.543 372.694C106.85 372.433 107.208 372.229 107.615 372.079C108.023 371.93 108.453 371.856 108.906 371.856C109.631 371.856 110.267 372.041 110.816 372.412C111.364 372.783 111.755 373.272 111.986 373.877C111.684 373.971 111.334 374.084 110.937 374.216C110.539 374.349 110.124 374.487 109.691 374.632C109.258 374.777 108.825 374.925 108.393 375.074C107.96 375.223 107.562 375.357 107.2 375.477C107.371 375.741 107.607 375.955 107.91 376.117C108.212 376.279 108.554 376.36 108.936 376.36C109.198 376.36 109.462 376.319 109.729 376.238C109.996 376.157 110.214 376.048 110.386 375.912L111.458 376.795Z" fill="white"/>
<path d="M127.571 377.43H126.121V371.991H127.571V377.43ZM125.955 369.88C125.955 369.658 126.051 369.475 126.242 369.33C126.433 369.185 126.639 369.112 126.861 369.112C127.082 369.112 127.286 369.185 127.473 369.33C127.659 369.475 127.752 369.658 127.752 369.88C127.752 370.111 127.659 370.296 127.473 370.437C127.286 370.578 127.082 370.648 126.861 370.648C126.639 370.648 126.433 370.578 126.242 370.437C126.051 370.296 125.955 370.111 125.955 369.88Z" fill="white"/>
<path d="M133.647 376.001C133.798 376.164 133.944 376.319 134.085 376.468C134.226 376.618 134.372 376.769 134.523 376.923C134.23 377.119 133.903 377.275 133.541 377.39C133.179 377.505 132.791 377.562 132.378 377.562C131.905 377.562 131.46 377.488 131.042 377.339C130.624 377.189 130.262 376.985 129.955 376.724C129.648 376.464 129.404 376.159 129.223 375.809C129.042 375.46 128.951 375.089 128.951 374.696C128.951 374.304 129.042 373.935 129.223 373.589C129.404 373.244 129.648 372.941 129.955 372.681C130.262 372.421 130.624 372.216 131.042 372.067C131.46 371.918 131.905 371.843 132.378 371.843C132.801 371.843 133.196 371.9 133.564 372.016C133.931 372.131 134.266 372.286 134.568 372.483L133.647 373.391C133.294 373.161 132.872 373.046 132.378 373.046C132.087 373.046 131.82 373.088 131.578 373.174C131.337 373.259 131.128 373.374 130.952 373.519C130.776 373.664 130.64 373.837 130.544 374.037C130.448 374.238 130.401 374.458 130.401 374.696C130.401 374.927 130.448 375.142 130.544 375.342C130.64 375.543 130.776 375.72 130.952 375.874C131.128 376.027 131.337 376.147 131.578 376.232C131.82 376.317 132.087 376.36 132.378 376.36C132.882 376.36 133.305 376.24 133.647 376.001Z" fill="white"/>
<path d="M146.858 377.52C145.932 377.52 145.162 377.26 144.548 376.739C143.934 376.219 143.627 375.566 143.627 374.781C143.627 373.996 143.934 373.344 144.548 372.824C145.162 372.303 145.932 372.043 146.858 372.043C147.653 372.043 148.287 372.197 148.76 372.504V373.131L148.368 372.913L147.945 372.721C147.562 372.61 147.2 372.555 146.858 372.555C146.083 372.555 145.454 372.759 144.971 373.169C144.478 373.587 144.231 374.125 144.231 374.781C144.231 375.43 144.478 375.963 144.971 376.381C145.464 376.799 146.093 377.008 146.858 377.008C147.583 377.008 148.217 376.803 148.76 376.393V377.046C148.197 377.362 147.562 377.52 146.858 377.52Z" fill="white"/>
<path d="M136.603 374.683C136.603 374.922 136.651 375.144 136.747 375.349C136.842 375.554 136.978 375.731 137.154 375.88C137.331 376.029 137.54 376.147 137.781 376.232C138.023 376.317 138.289 376.36 138.581 376.36C138.873 376.36 139.14 376.317 139.382 376.232C139.623 376.147 139.832 376.027 140.008 375.874C140.184 375.72 140.32 375.541 140.416 375.336C140.511 375.131 140.559 374.914 140.559 374.683C140.559 374.453 140.511 374.238 140.416 374.037C140.32 373.837 140.184 373.664 140.008 373.519C139.832 373.374 139.623 373.259 139.382 373.174C139.14 373.088 138.873 373.046 138.581 373.046C138.289 373.046 138.023 373.086 137.781 373.167C137.54 373.248 137.331 373.363 137.154 373.513C136.978 373.662 136.842 373.837 136.747 374.037C136.651 374.238 136.603 374.453 136.603 374.683ZM135.139 374.76C135.139 374.368 135.229 373.995 135.411 373.641C135.592 373.287 135.836 372.977 136.143 372.713C136.45 372.449 136.807 372.237 137.215 372.079C137.622 371.922 138.053 371.843 138.506 371.843C138.808 371.843 139.08 371.875 139.321 371.939C139.563 372.003 139.771 372.078 139.948 372.163C140.124 372.248 140.262 372.335 140.363 372.425C140.463 372.515 140.529 372.585 140.559 372.636L140.619 371.983H142.024V377.422H140.559V377.063C140.559 377.021 140.562 376.98 140.567 376.942C140.572 376.903 140.574 376.876 140.574 376.859C140.534 376.901 140.463 376.963 140.363 377.044C140.262 377.125 140.126 377.204 139.955 377.281C139.784 377.358 139.58 377.424 139.344 377.479C139.107 377.535 138.833 377.562 138.521 377.562C138.028 377.562 137.575 377.486 137.162 377.332C136.749 377.179 136.392 376.974 136.09 376.718C135.788 376.462 135.554 376.166 135.388 375.829C135.222 375.492 135.139 375.136 135.139 374.76Z" fill="white"/>
<path d="M150.269 372.145H150.888V377.43H150.269V372.145ZM150.586 371.198C150.475 371.198 150.36 371.16 150.239 371.083C150.148 371.006 150.098 370.904 150.088 370.776C150.088 370.546 150.254 370.405 150.586 370.354C150.838 370.354 151.004 370.494 151.085 370.776C151.085 371.057 150.918 371.198 150.586 371.198Z" fill="white"/>
<path d="M157.853 379.898H157.158L158.774 376.93L156.146 372.131H156.811L159.136 376.303L161.431 372.131H162.11L157.853 379.898Z" fill="white"/>
<path d="M153.875 372.67L153.875 377.43H153.256V372.67H152.41V372.145H153.256V369.829H153.875V372.145H155.324V372.67H153.875Z" fill="white"/>
</g>
<path fill-rule="evenodd" clip-rule="evenodd" d="M94.8395 334.994H157.037C162.128 334.994 166.768 337.731 170.138 342.143C173.538 346.591 175.648 352.736 175.648 359.5V384.007H85.9838V346.734C85.9838 343.48 86.9978 340.527 88.6277 338.393C90.2304 336.296 92.4309 334.994 94.8395 334.994V334.994ZM157.037 334.004H94.8395C92.1062 334.004 89.6298 335.456 87.8435 337.793C86.0857 340.093 84.9942 343.258 84.9942 346.734V384.502C84.9942 384.775 85.2163 384.996 85.4893 384.996H176.144C176.416 384.996 176.639 384.775 176.639 384.502V359.5C176.639 352.514 174.449 346.157 170.923 341.543C167.368 336.892 162.453 334.004 157.037 334.004" fill="#373435"/>
<path fill-rule="evenodd" clip-rule="evenodd" d="M157.048 334.505H143.226V363.368C143.226 365.604 145.055 367.434 147.292 367.434H176.154V359.506C176.154 345.755 167.556 334.505 157.048 334.505Z" fill="#E7FED5"/>
<path fill-rule="evenodd" clip-rule="evenodd" d="M143.71 334.99H157.037C162.129 334.99 166.768 337.727 170.138 342.139C173.538 346.587 175.648 352.732 175.648 359.496V366.928H147.281C146.312 366.928 145.428 366.537 144.782 365.905L144.759 365.879C144.113 365.232 143.71 364.34 143.71 363.358V334.99ZM157.037 334H143.215C142.942 334 142.72 334.222 142.72 334.495V363.358C142.72 364.613 143.233 365.753 144.059 366.579L144.09 366.607C144.914 367.417 146.041 367.918 147.281 367.918H176.144C176.416 367.918 176.639 367.697 176.639 367.424V359.496C176.639 352.51 174.449 346.153 170.923 341.539C167.368 336.888 162.453 334 157.037 334Z" fill="#373435"/>
<path fill-rule="evenodd" clip-rule="evenodd" d="M138.744 334.513H94.8406C89.698 334.513 85.4904 340.019 85.4904 346.748V348.742H138.744V334.513Z" fill="#E7FED5"/>
<path fill-rule="evenodd" clip-rule="evenodd" d="M94.8533 335.006H138.262V348.245H85.9976V346.745C85.9976 343.492 87.0102 340.539 88.6423 338.405C90.2443 336.308 92.4447 335.006 94.8533 335.006V335.006ZM138.757 334.017H94.8533C92.12 334.017 89.6437 335.468 87.8573 337.805C86.0996 340.105 85.0081 343.27 85.0081 346.745V348.74C85.0081 349.013 85.2301 349.234 85.5032 349.234H138.757C139.031 349.234 139.252 349.013 139.252 348.74V334.511C139.252 334.238 139.031 334.017 138.757 334.017" fill="#373435"/>
<path fill-rule="evenodd" clip-rule="evenodd" d="M85.4904 352.791V367.02H131.834C135.634 367.02 138.744 365.292 138.744 363.18V352.791H85.4904" fill="#E7FED5"/>
<path fill-rule="evenodd" clip-rule="evenodd" d="M85.9976 366.545V353.306H138.262V363.2C138.262 364.063 137.583 364.872 136.487 365.481C135.306 366.137 133.664 366.545 131.847 366.545H85.9976ZM85.0081 352.812V367.04C85.0081 367.313 85.2301 367.535 85.5032 367.535H131.847C133.83 367.535 135.644 367.078 136.967 366.343C138.377 365.56 139.252 364.449 139.252 363.2V352.812C139.252 352.538 139.031 352.317 138.757 352.317H85.5032C85.2301 352.317 85.0081 352.538 85.0081 352.812" fill="#373435"/>
<path fill-rule="evenodd" clip-rule="evenodd" d="M174.115 388.18H87.1197V384.115H174.115V388.18Z" fill="white"/>
<path fill-rule="evenodd" clip-rule="evenodd" d="M87.6275 384.604H173.633V387.678H87.6275V384.604ZM174.128 383.613H87.1324C86.86 383.613 86.638 383.835 86.638 384.108V388.173C86.638 388.447 86.86 388.668 87.1324 388.668H174.128C174.401 388.668 174.623 388.447 174.623 388.173V384.108C174.623 383.835 174.401 383.613 174.128 383.613Z" fill="#373435"/>
<path fill-rule="evenodd" clip-rule="evenodd" d="M112.435 392.422C108.873 392.422 105.969 389.518 105.969 385.957C105.969 382.396 108.873 379.492 112.435 379.492C115.995 379.492 118.898 382.396 118.898 385.957C118.898 389.518 115.995 392.422 112.435 392.422Z" fill="#A1A0A5"/>
<path fill-rule="evenodd" clip-rule="evenodd" d="M117.354 381.049C116.095 379.789 114.354 379.01 112.434 379.01C110.511 379.01 108.771 379.789 107.512 381.049C106.252 382.308 105.473 384.048 105.473 385.97C105.473 387.892 106.252 389.631 107.512 390.891C108.771 392.151 110.511 392.93 112.434 392.93C114.354 392.93 116.095 392.151 117.354 390.891C118.613 389.632 119.393 387.892 119.393 385.97C119.393 384.048 118.613 382.308 117.354 381.049ZM112.434 380C114.082 380 115.575 380.668 116.655 381.748C117.735 382.829 118.403 384.321 118.403 385.97C118.403 387.619 117.735 389.111 116.655 390.191C115.575 391.272 114.082 391.94 112.434 391.94C110.784 391.94 109.292 391.272 108.212 390.191C107.131 389.111 106.463 387.619 106.463 385.97C106.463 384.321 107.131 382.829 108.212 381.748C109.292 380.668 110.784 380 112.434 380Z" fill="#373435"/>
<path fill-rule="evenodd" clip-rule="evenodd" d="M112.438 388.98C110.776 388.98 109.421 387.626 109.421 385.964C109.421 384.303 110.776 382.947 112.438 382.947C114.099 382.947 115.455 384.303 115.455 385.964C115.455 387.626 114.099 388.98 112.438 388.98Z" fill="white"/>
<path fill-rule="evenodd" clip-rule="evenodd" d="M114.913 383.477C114.278 382.841 113.399 382.448 112.43 382.448C111.46 382.448 110.582 382.841 109.946 383.477C109.311 384.112 108.917 384.991 108.917 385.96C108.917 386.93 109.311 387.808 109.946 388.443C110.582 389.079 111.46 389.473 112.43 389.473C113.399 389.473 114.278 389.079 114.913 388.443C115.548 387.808 115.941 386.93 115.941 385.96C115.941 384.991 115.548 384.112 114.913 383.477ZM112.43 383.437C113.126 383.437 113.757 383.72 114.213 384.176C114.67 384.633 114.952 385.264 114.952 385.96C114.952 386.656 114.67 387.288 114.213 387.744C113.757 388.2 113.126 388.482 112.43 388.482C111.733 388.482 111.103 388.2 110.647 387.744C110.19 387.288 109.907 386.656 109.907 385.96C109.907 385.264 110.19 384.633 110.647 384.176C111.103 383.72 111.733 383.437 112.43 383.437Z" fill="#373435"/>
<path fill-rule="evenodd" clip-rule="evenodd" d="M168.108 348.968C168.301 349.162 168.615 349.162 168.808 348.968C169.001 348.775 169.001 348.462 168.808 348.268L161.632 341.092C161.438 340.899 161.125 340.899 160.931 341.092C160.738 341.285 160.738 341.598 160.931 341.792L168.108 348.968" fill="#373435"/>
<path fill-rule="evenodd" clip-rule="evenodd" d="M166.952 357.368C167.14 357.565 167.453 357.57 167.649 357.382C167.846 357.193 167.852 356.88 167.663 356.684L154.556 343.082C154.368 342.886 154.054 342.88 153.858 343.069C153.662 343.258 153.655 343.571 153.844 343.767L166.952 357.368" fill="#373435"/>
<path fill-rule="evenodd" clip-rule="evenodd" d="M135.595 342.058C135.788 342.251 136.101 342.251 136.295 342.058C136.488 341.865 136.488 341.551 136.295 341.358L132.369 337.431C132.175 337.239 131.862 337.239 131.669 337.431C131.475 337.625 131.475 337.938 131.669 338.132L135.595 342.058Z" fill="#373435"/>
<path fill-rule="evenodd" clip-rule="evenodd" d="M134.946 346.638C135.134 346.834 135.448 346.84 135.644 346.651C135.84 346.462 135.846 346.15 135.657 345.953L128.487 338.512C128.298 338.316 127.986 338.31 127.789 338.499C127.592 338.688 127.587 339.001 127.775 339.197L134.946 346.638" fill="#373435"/>
<path fill-rule="evenodd" clip-rule="evenodd" d="M178.499 375.043C178.772 375.047 178.996 374.83 179 374.558C179.004 374.286 178.787 374.061 178.515 374.057L171.687 373.942C171.415 373.937 171.19 374.155 171.186 374.427C171.183 374.699 171.4 374.923 171.672 374.928L178.499 375.043Z" fill="#373435"/>
<path fill-rule="evenodd" clip-rule="evenodd" d="M178.499 377.434C178.772 377.438 178.996 377.221 179 376.948C179.004 376.676 178.787 376.452 178.515 376.447L171.687 376.332C171.415 376.329 171.19 376.546 171.186 376.818C171.183 377.09 171.4 377.314 171.672 377.318L178.499 377.434Z" fill="#373435"/>
<path fill-rule="evenodd" clip-rule="evenodd" d="M176.88 378.414H172.57C172.078 378.414 171.676 378.816 171.676 379.308V383.617C171.676 384.109 172.078 384.512 172.57 384.512H176.88C177.371 384.512 177.773 384.109 177.773 383.617V379.308C177.773 378.816 177.371 378.414 176.88 378.414Z" fill="#49A384"/>
<path fill-rule="evenodd" clip-rule="evenodd" d="M172.571 378.899H176.881C176.989 378.899 177.089 378.944 177.162 379.017C177.235 379.089 177.28 379.189 177.28 379.298V383.607C177.28 383.717 177.235 383.817 177.162 383.889C177.089 383.961 176.989 384.007 176.881 384.007H172.571C172.47 384.007 172.377 383.97 172.308 383.908L172.289 383.889C172.217 383.817 172.172 383.717 172.172 383.607V379.298C172.172 379.189 172.217 379.089 172.289 379.017L172.288 379.015L172.289 379.015C172.361 378.943 172.461 378.899 172.571 378.899ZM176.881 377.908H172.571C172.19 377.908 171.843 378.066 171.59 378.318V378.316C171.338 378.568 171.182 378.916 171.182 379.298V383.607C171.182 383.99 171.338 384.338 171.59 384.589C171.601 384.6 171.612 384.611 171.624 384.62C171.873 384.854 172.207 384.996 172.571 384.996H176.881C177.263 384.996 177.611 384.84 177.862 384.589C178.113 384.338 178.27 383.99 178.27 383.607V379.298C178.27 378.916 178.113 378.568 177.862 378.316C177.611 378.065 177.263 377.908 176.881 377.908" fill="#373435"/>
<path fill-rule="evenodd" clip-rule="evenodd" d="M166.096 392.422C162.535 392.422 159.631 389.518 159.631 385.957C159.631 382.396 162.535 379.492 166.096 379.492C169.657 379.492 172.561 382.396 172.561 385.957C172.561 389.518 169.657 392.422 166.096 392.422" fill="#A1A0A5"/>
<path fill-rule="evenodd" clip-rule="evenodd" d="M171.006 381.049C169.747 379.789 168.007 379.01 166.085 379.01C164.163 379.01 162.423 379.789 161.164 381.049C159.904 382.308 159.126 384.048 159.126 385.97C159.126 387.892 159.904 389.631 161.164 390.891C162.423 392.151 164.163 392.93 166.085 392.93C168.007 392.93 169.747 392.151 171.006 390.891C172.266 389.632 173.045 387.892 173.045 385.97C173.045 384.048 172.266 382.308 171.006 381.049V381.049ZM166.085 380C167.734 380 169.226 380.668 170.307 381.748C171.387 382.829 172.055 384.321 172.055 385.97C172.055 387.619 171.387 389.111 170.307 390.191C169.226 391.272 167.734 391.94 166.085 391.94C164.436 391.94 162.944 391.272 161.864 390.191C160.783 389.111 160.115 387.619 160.115 385.97C160.115 384.321 160.783 382.829 161.864 381.748C162.944 380.668 164.436 380 166.085 380Z" fill="#373435"/>
<path fill-rule="evenodd" clip-rule="evenodd" d="M166.086 388.98C164.425 388.98 163.069 387.626 163.069 385.964C163.069 384.303 164.425 382.947 166.086 382.947C167.747 382.947 169.104 384.303 169.104 385.964C169.104 387.626 167.747 388.98 166.086 388.98Z" fill="white"/>
<path fill-rule="evenodd" clip-rule="evenodd" d="M168.585 383.477C167.95 382.841 167.071 382.448 166.101 382.448C165.132 382.448 164.253 382.841 163.618 383.477C162.983 384.112 162.589 384.991 162.589 385.96C162.589 386.93 162.983 387.808 163.618 388.443C164.253 389.079 165.132 389.473 166.101 389.473C167.071 389.473 167.95 389.079 168.585 388.443C169.22 387.808 169.613 386.93 169.613 385.96C169.613 384.991 169.22 384.112 168.585 383.477ZM166.101 383.437C166.798 383.437 167.429 383.72 167.885 384.176C168.341 384.633 168.624 385.264 168.624 385.96C168.624 386.656 168.341 387.288 167.885 387.744C167.429 388.2 166.798 388.482 166.101 388.482C165.405 388.482 164.774 388.2 164.318 387.744C163.862 387.288 163.579 386.656 163.579 385.96C163.579 385.264 163.862 384.633 164.318 384.176C164.774 383.72 165.405 383.437 166.101 383.437Z" fill="#373435"/>
<path fill-rule="evenodd" clip-rule="evenodd" d="M93.2227 384.094H81.8403V380.435H93.2227V384.094Z" fill="#F0F5FF"/>
<path fill-rule="evenodd" clip-rule="evenodd" d="M82.3345 380.946H92.7272V383.615H82.3345V380.946ZM93.2217 379.957H81.8394C81.5656 379.957 81.3442 380.179 81.3442 380.452V384.11C81.3442 384.383 81.5656 384.605 81.8394 384.605H93.2217C93.4947 384.605 93.7168 384.383 93.7168 384.11V380.452C93.7168 380.179 93.4947 379.957 93.2217 379.957Z" fill="#373435"/>
<path fill-rule="evenodd" clip-rule="evenodd" d="M94.9527 392.422C91.3918 392.422 88.4881 389.518 88.4881 385.957C88.4881 382.396 91.3918 379.492 94.9527 379.492C98.5135 379.492 101.418 382.396 101.418 385.957C101.418 389.518 98.5135 392.422 94.9527 392.422Z" fill="#A1A0A5"/>
<path fill-rule="evenodd" clip-rule="evenodd" d="M99.8697 381.049C98.6106 379.789 96.8703 379.01 94.9485 379.01C93.0266 379.01 91.2864 379.789 90.0266 381.049C88.7681 382.308 87.9888 384.048 87.9888 385.97C87.9888 387.892 88.7681 389.631 90.0266 390.891C91.2864 392.151 93.0266 392.93 94.9485 392.93C96.8703 392.93 98.6106 392.151 99.8697 390.891C101.13 389.632 101.908 387.892 101.908 385.97C101.908 384.048 101.13 382.308 99.8697 381.049ZM94.9485 380C96.5973 380 98.0896 380.668 99.17 381.748C100.25 382.829 100.919 384.321 100.919 385.97C100.919 387.619 100.25 389.111 99.17 390.191C98.0896 391.272 96.5973 391.94 94.9485 391.94C93.2997 391.94 91.8073 391.272 90.727 390.191C89.6473 389.111 88.979 387.619 88.979 385.97C88.979 384.321 89.6473 382.829 90.727 381.748C91.8073 380.668 93.2997 380 94.9485 380Z" fill="#373435"/>
<path fill-rule="evenodd" clip-rule="evenodd" d="M94.9551 388.98C93.2931 388.98 91.9382 387.626 91.9382 385.964C91.9382 384.303 93.2931 382.947 94.9551 382.947C96.6165 382.947 97.9727 384.303 97.9727 385.964C97.9727 387.626 96.6165 388.98 94.9551 388.98Z" fill="white"/>
<path fill-rule="evenodd" clip-rule="evenodd" d="M97.444 383.477C96.8092 382.841 95.9307 382.448 94.9607 382.448C93.9914 382.448 93.1129 382.841 92.4774 383.477C91.8426 384.112 91.4487 384.991 91.4487 385.96C91.4487 386.93 91.8426 387.808 92.4774 388.443C93.1129 389.079 93.9914 389.473 94.9607 389.473C95.9307 389.473 96.8092 389.079 97.444 388.443C98.0795 387.808 98.4727 386.93 98.4727 385.96C98.4727 384.991 98.0795 384.112 97.444 383.477ZM94.9607 383.437C95.6569 383.437 96.2882 383.72 96.7443 384.176C97.2003 384.633 97.4831 385.264 97.4831 385.96C97.4831 386.656 97.2003 387.288 96.7443 387.744C96.2882 388.2 95.6569 388.482 94.9607 388.482C94.2644 388.482 93.6338 388.2 93.1778 387.744C92.7211 387.288 92.439 386.656 92.439 385.96C92.439 385.264 92.7211 384.633 93.1778 384.176C93.6338 383.72 94.2644 383.437 94.9607 383.437Z" fill="#373435"/>
<path fill-rule="evenodd" clip-rule="evenodd" d="M371.499 203C393.867 203 412 221.133 412 243.501C412 265.867 393.867 284 371.499 284C349.133 284 331 265.867 331 243.501C331 221.133 349.133 203 371.499 203Z" fill="white"/>
<path fill-rule="evenodd" clip-rule="evenodd" d="M383.826 213.563L396.907 218.594H392.527L383.826 213.563Z" fill="#372B4E"/>
<path fill-rule="evenodd" clip-rule="evenodd" d="M405.46 213.563L392.379 218.594H396.759L405.46 213.563Z" fill="#372B4E"/>
<path fill-rule="evenodd" clip-rule="evenodd" d="M337.541 319.72L344.584 322.738H342.226L337.541 319.72Z" fill="#372B4E"/>
<path fill-rule="evenodd" clip-rule="evenodd" d="M349.112 319.72L342.068 322.738H344.427L349.112 319.72Z" fill="#372B4E"/>
<path fill-rule="evenodd" clip-rule="evenodd" d="M358.168 309.657L364.708 312.676H362.519L358.168 309.657Z" fill="#372B4E"/>
<path fill-rule="evenodd" clip-rule="evenodd" d="M368.733 309.657L362.695 312.676H364.716L368.733 309.657Z" fill="#372B4E"/>
<path fill-rule="evenodd" clip-rule="evenodd" d="M0 391.436C1.37635 389.984 13.7327 393.712 29.1376 394.882C44.5425 396.052 53.74 395.243 67.3161 396.233C80.8922 397.222 94.9049 399.371 125.119 400.546C155.332 401.722 183.268 398.846 209.436 399.168C209.506 399.169 217.65 399.119 227.325 399.613C250.367 400.789 268.508 401.867 283.443 401.516C306.489 400.975 317.389 398.572 336.44 397.222C343.018 396.757 351.815 396.25 361.199 395.875C370.392 395.508 380.182 395.273 386.404 394.638C391.786 394.089 399.386 392.676 406.485 391.806C407.102 391.73 409.86 391.307 411.114 391.216C414.118 390.999 417.795 390.959 418.818 391.037C420.394 391.158 420.394 400.808 418.818 419.987L0 420V391.436Z" fill="white"/>
<defs>
<linearGradient id="paint0_linear_3206_11930" x1="210" y1="0" x2="210" y2="420" gradientUnits="userSpaceOnUse">
<stop stop-color="#C5F79F"/>
<stop offset="1" stop-color="#5FDC00"/>
</linearGradient>
</defs>
</svg>
